# xmcd
#
# Track frame offsets: 
#        150
#        15050
#        26530
#        35995
#        49115
#        60477
#        68735
#        81297
#        94820
#        107720
#        119537
#        135877
#        153085
#        163410
#        175635
#        191595
#
# Disc length: 2703 seconds
#
# Revision: 3
# Processed by: cddbd v1.5.2PL0 Copyright (c) Steve Scherf et al.
# Submitted via: ExactAudioCopy v1.0b1
#
DISCID=c70a8d10
DTITLE=Starline Rhytm Boys - Better Luck is a Barroom Away
DYEAR=2000
DGENRE=Country
TTITLE0=Better Luck is a Barroom Away
TTITLE1=Rollin' Danny
TTITLE2=Piece of Alabam
TTITLE3=Apartment #9
TTITLE4=I Need a Good Girl Bad
TTITLE5=Do A Little Wrong Tonight
TTITLE6=Buckets of Love
TTITLE7=3am in the Kansas Plains
TTITLE8=Better Buick Boogie
TTITLE9=Life's Heart is Unfair
TTITLE10=Where the Rio De Rosa Flows
TTITLE11=I Cried Again
TTITLE12=Juke Joint Johnny
TTITLE13=Texacos and Roadmaps
TTITLE14=I Couldn't Care Less
TTITLE15=Goodbye Train
EXTD=YEAR: 2000 ID3G:   2
EXTT0=
EXTT1=
EXTT2=
EXTT3=
EXTT4=
EXTT5=
EXTT6=
EXTT7=
EXTT8=
EXTT9=
EXTT10=
EXTT11=
EXTT12=
EXTT13=
EXTT14=
EXTT15=
PLAYORDER=
